<svg viewBox="0 0 800 500" xmlns="http://www.w3.org/2000/svg" role="img" aria-label="Printable PDF document icon with a download arrow and a completed checklist">
  <rect width="800" height="500" fill="#EAF6EA"/>
  <circle cx="650" cy="120" r="60" fill="#1976D2" opacity="0.1"/>
  <circle cx="120" cy="400" r="50" fill="#FFB300" opacity="0.15"/>
  <path d="M280 80 L460 80 L520 140 L520 420 L280 420 Z" fill="#FFFFFF" stroke="#2E7D32" stroke-width="5"/>
  <path d="M460 80 L460 140 L520 140 Z" fill="#D8E3D9"/>
  <rect x="310" y="180" width="170" height="14" rx="7" fill="#2E7D32"/>
  <g>
    <rect x="310" y="216" width="18" height="18" rx="5" fill="#FFFFFF" stroke="#43A047" stroke-width="3"/>
    <path d="M314 226 l4 4 8 -9" stroke="#43A047" stroke-width="3" fill="none" stroke-linecap="round"/>
    <rect x="338" y="220" width="120" height="10" rx="5" fill="#E2EAE2"/>
    <rect x="310" y="250" width="18" height="18" rx="5" fill="#FFFFFF" stroke="#43A047" stroke-width="3"/>
    <path d="M314 260 l4 4 8 -9" stroke="#43A047" stroke-width="3" fill="none" stroke-linecap="round"/>
    <rect x="338" y="254" width="140" height="10" rx="5" fill="#E2EAE2"/>
    <rect x="310" y="284" width="18" height="18" rx="5" fill="#FFFFFF" stroke="#43A047" stroke-width="3"/>
    <path d="M314 294 l4 4 8 -9" stroke="#43A047" stroke-width="3" fill="none" stroke-linecap="round"/>
    <rect x="338" y="288" width="100" height="10" rx="5" fill="#E2EAE2"/>
  </g>
  <rect x="296" y="330" width="78" height="40" rx="8" fill="#1976D2"/>
  <text x="335" y="357" font-family="Poppins, sans-serif" font-size="20" font-weight="700" fill="#FFFFFF" text-anchor="middle">PDF</text>
  <g transform="translate(560,260)">
    <circle cx="40" cy="40" r="48" fill="#FFB300"/>
    <path d="M40 16 L40 56 M22 42 L40 60 L58 42" stroke="#FFFFFF" stroke-width="6" fill="none" stroke-linecap="round" stroke-linejoin="round"/>
    <rect x="14" y="64" width="52" height="8" rx="4" fill="#FFFFFF"/>
  </g>
</svg>
