<svg viewBox="0 0 800 500" xmlns="http://www.w3.org/2000/svg" role="img" aria-label="Close-up of a printable weekly homeschool planner page with a seven day grid">
  <rect width="800" height="500" fill="#FFFFFF"/>
  <rect x="40" y="40" width="720" height="420" rx="16" fill="#F7F9FA" stroke="#E1E8E3" stroke-width="2"/>
  <rect x="40" y="40" width="720" height="60" rx="16" fill="#2E7D32"/>
  <rect x="40" y="80" width="720" height="20" fill="#2E7D32"/>
  <text x="70" y="78" font-family="Poppins, sans-serif" font-size="26" font-weight="700" fill="#FFFFFF">My Homeschool Week</text>
  <g font-family="Inter, sans-serif" font-size="14" fill="#2E7D32" font-weight="700">
    <text x="100" y="128">MON</text><text x="200" y="128">TUE</text><text x="300" y="128">WED</text>
    <text x="400" y="128">THU</text><text x="500" y="128">FRI</text><text x="600" y="128">SAT</text><text x="690" y="128">SUN</text>
  </g>
  <line x1="40" y1="140" x2="760" y2="140" stroke="#E1E8E3" stroke-width="2"/>
  <line x1="160" y1="100" x2="160" y2="460" stroke="#EEF1EF" stroke-width="2"/>
  <line x1="260" y1="100" x2="260" y2="460" stroke="#EEF1EF" stroke-width="2"/>
  <line x1="360" y1="100" x2="360" y2="460" stroke="#EEF1EF" stroke-width="2"/>
  <line x1="460" y1="100" x2="460" y2="460" stroke="#EEF1EF" stroke-width="2"/>
  <line x1="560" y1="100" x2="560" y2="460" stroke="#EEF1EF" stroke-width="2"/>
  <line x1="660" y1="100" x2="660" y2="460" stroke="#EEF1EF" stroke-width="2"/>
  <rect x="65" y="160" width="80" height="14" rx="6" fill="#43A047"/>
  <rect x="165" y="160" width="80" height="14" rx="6" fill="#FFB300"/>
  <rect x="265" y="160" width="80" height="14" rx="6" fill="#1976D2"/>
  <rect x="365" y="160" width="80" height="14" rx="6" fill="#43A047"/>
  <rect x="465" y="160" width="80" height="14" rx="6" fill="#FFB300"/>
  <rect x="65" y="200" width="60" height="14" rx="6" fill="#D8E3D9"/>
  <rect x="165" y="200" width="70" height="14" rx="6" fill="#D8E3D9"/>
  <rect x="265" y="200" width="55" height="14" rx="6" fill="#D8E3D9"/>
  <rect x="365" y="200" width="65" height="14" rx="6" fill="#D8E3D9"/>
  <rect x="465" y="200" width="60" height="14" rx="6" fill="#D8E3D9"/>
  <rect x="65" y="240" width="70" height="14" rx="6" fill="#EEF1EF"/>
  <rect x="165" y="240" width="60" height="14" rx="6" fill="#EEF1EF"/>
  <rect x="265" y="240" width="75" height="14" rx="6" fill="#EEF1EF"/>
  <rect x="365" y="240" width="55" height="14" rx="6" fill="#EEF1EF"/>
  <rect x="465" y="240" width="65" height="14" rx="6" fill="#EEF1EF"/>
</svg>
