<svg viewBox="0 0 400 250" xmlns="http://www.w3.org/2000/svg" role="img" aria-label="Illustration of a closed homeschool planner with a bookmark ribbon and checklist icon">
  <rect width="400" height="250" fill="#EAF6EA"/>
  <circle cx="350" cy="40" r="46" fill="#FFB300" opacity="0.18"/>
  <circle cx="30" cy="220" r="40" fill="#1976D2" opacity="0.1"/>

  <g transform="translate(120,40)">
    <rect x="0" y="0" width="160" height="180" rx="14" fill="#2E7D32"/>
    <rect x="14" y="16" width="132" height="148" rx="8" fill="#FFFFFF"/>
    <rect x="30" y="40" width="100" height="10" rx="5" fill="#2E7D32"/>
    <rect x="30" y="60" width="70" height="7" rx="3.5" fill="#C7D8C9"/>

    <rect x="30" y="86" width="14" height="14" rx="4" fill="#FFFFFF" stroke="#43A047" stroke-width="2"/>
    <path d="M33 93 l3 3 6 -7" stroke="#43A047" stroke-width="2" fill="none" stroke-linecap="round"/>
    <rect x="52" y="89" width="64" height="6" rx="3" fill="#E2EAE2"/>

    <rect x="30" y="110" width="14" height="14" rx="4" fill="#FFFFFF" stroke="#43A047" stroke-width="2"/>
    <path d="M33 117 l3 3 6 -7" stroke="#43A047" stroke-width="2" fill="none" stroke-linecap="round"/>
    <rect x="52" y="113" width="50" height="6" rx="3" fill="#E2EAE2"/>

    <rect x="30" y="134" width="14" height="14" rx="4" fill="#FFFFFF" stroke="#FFB300" stroke-width="2"/>
    <rect x="52" y="137" width="58" height="6" rx="3" fill="#E2EAE2"/>

    <path d="M118 -4 L118 36 L132 24 L146 36 L146 -4 Z" fill="#FFB300"/>
  </g>
</svg>
